<svg xmlns="http://www.w3.org/2000/svg" width="410" height="404" viewBox="0 0 410 404"><defs><linearGradient id="a" x1="0" y1="0" x2="1" y2="1"><stop offset="0" stop-color="#41d1ff"/><stop offset="1" stop-color="#bd34fe"/></linearGradient><linearGradient id="b" x1="0.5" y1="0" x2="0.5" y2="1"><stop offset="0" stop-color="#ffea83"/><stop offset="0.083" stop-color="#ffdd35"/><stop offset="1" stop-color="#ffa800"/></linearGradient></defs><path fill="#213547" d="M399.641 59.525 216.801 388.158c-5.4 9.594-19.202 9.601-24.611.013L10.367 59.53c-5.746-10.163 1.785-22.764 13.116-22.764h156.899c4.975 0 9.537 2.627 12.051 6.923l25.64 43.507 24.259-43.48c2.51-4.297 7.073-6.95 12.049-6.95h157.04c11.33 0 18.861 12.6 13.115 22.762Z"/><path fill="url(#a)" d="M229.57 56.804 69.74 343.722 196.343 114.46l33.227-57.656Z"/><path fill="url(#a)" d="m261.346 56.788-112.82 197.82 44.062-80.327 68.748-117.493Z"/><path fill="url(#b)" d="M176.468 200.408 69.74 343.722l76.562-46.132 30.166-97.182Z"/></svg>